pose8
version=1
nRows=4
nColumns=213
inDegrees=yes
endheader
time	platform_rx	platform_ry	platform_rz	platform_ty	pelvis_tilt	pelvis_list	pelvis_rotation	pelvis_tx	pelvis_ty	pelvis_tz	hip_flexion_r	hip_adduction_r	hip_rotation_r	knee_angle_r	knee_angle_r_beta	ankle_angle_r	subtalar_angle_r	mtp_angle_r	hip_flexion_l	hip_adduction_l	hip_rotation_l	knee_angle_l	knee_angle_l_beta	ankle_angle_l	subtalar_angle_l	mtp_angle_l	lumbar_extension	lumbar_bending	lumbar_rotation	arm_flex_r	arm_add_r	arm_rot_r	elbow_flex_r	pro_sup_r	wrist_flex_r	wrist_dev_r	arm_flex_l	arm_add_l	arm_rot_l	elbow_flex_l	pro_sup_l	wrist_flex_l	wrist_dev_l	platform_rx_u	platform_ry_u	platform_rz_u	platform_ty_u	pelvis_tilt_u	pelvis_list_u	pelvis_rotation_u	pelvis_tx_u	pelvis_ty_u	pelvis_tz_u	hip_flexion_r_u	hip_adduction_r_u	hip_rotation_r_u	knee_angle_r_u	knee_angle_r_beta_u	ankle_angle_r_u	subtalar_angle_r_u	mtp_angle_r_u	hip_flexion_l_u	hip_adduction_l_u	hip_rotation_l_u	knee_angle_l_u	knee_angle_l_beta_u	ankle_angle_l_u	subtalar_angle_l_u	mtp_angle_l_u	lumbar_extension_u	lumbar_bending_u	lumbar_rotation_u	arm_flex_r_u	arm_add_r_u	arm_rot_r_u	elbow_flex_r_u	pro_sup_r_u	wrist_flex_r_u	wrist_dev_r_u	arm_flex_l_u	arm_add_l_u	arm_rot_l_u	elbow_flex_l_u	pro_sup_l_u	wrist_flex_l_u	wrist_dev_l_u	addbrev_r.activation	addlong_r.activation	addlong_r.fiber_length	addmagDist_r.activation	addmagIsch_r.activation	addmagIsch_r.fiber_length	addmagMid_r.activation	addmagProx_r.activation	bflh_r.activation	bflh_r.fiber_length	bfsh_r.activation	edl_r.activation	edl_r.fiber_length	ehl_r.activation	ehl_r.fiber_length	fdl_r.activation	fdl_r.fiber_length	fhl_r.activation	fhl_r.fiber_length	gaslat_r.activation	gaslat_r.fiber_length	gasmed_r.activation	gasmed_r.fiber_length	glmax1_r.activation	glmax2_r.activation	glmax3_r.activation	glmed1_r.activation	glmed2_r.activation	glmed3_r.activation	glmin1_r.activation	glmin2_r.activation	glmin3_r.activation	glmin3_r.fiber_length	grac_r.activation	iliacus_r.activation	perbrev_r.activation	perbrev_r.fiber_length	perlong_r.activation	perlong_r.fiber_length	piri_r.activation	piri_r.fiber_length	psoas_r.activation	recfem_r.activation	recfem_r.fiber_length	sart_r.activation	semimem_r.activation	semimem_r.fiber_length	semiten_r.activation	semiten_r.fiber_length	soleus_r.activation	soleus_r.fiber_length	tfl_r.activation	tfl_r.fiber_length	tibant_r.activation	tibant_r.fiber_length	tibpost_r.activation	tibpost_r.fiber_length	vasint_r.activation	vasint_r.fiber_length	vaslat_r.activation	vaslat_r.fiber_length	vasmed_r.activation	vasmed_r.fiber_length	addbrev_l.activation	addlong_l.activation	addlong_l.fiber_length	addmagDist_l.activation	addmagIsch_l.activation	addmagIsch_l.fiber_length	addmagMid_l.activation	addmagProx_l.activation	bflh_l.activation	bflh_l.fiber_length	bfsh_l.activation	edl_l.activation	edl_l.fiber_length	ehl_l.activation	ehl_l.fiber_length	fdl_l.activation	fdl_l.fiber_length	fhl_l.activation	fhl_l.fiber_length	gaslat_l.activation	gaslat_l.fiber_length	gasmed_l.activation	gasmed_l.fiber_length	glmax1_l.activation	glmax2_l.activation	glmax3_l.activation	glmed1_l.activation	glmed2_l.activation	glmed3_l.activation	glmin1_l.activation	glmin2_l.activation	glmin3_l.activation	glmin3_l.fiber_length	grac_l.activation	iliacus_l.activation	perbrev_l.activation	perbrev_l.fiber_length	perlong_l.activation	perlong_l.fiber_length	piri_l.activation	piri_l.fiber_length	psoas_l.activation	recfem_l.activation	recfem_l.fiber_length	sart_l.activation	semimem_l.activation	semimem_l.fiber_length	semiten_l.activation	semiten_l.fiber_length	soleus_l.activation	soleus_l.fiber_length	tfl_l.activation	tfl_l.fiber_length	tibant_l.activation	tibant_l.fiber_length	tibpost_l.activation	tibpost_l.fiber_length	vasint_l.activation	vasint_l.fiber_length	vaslat_l.activation	vaslat_l.fiber_length	vasmed_l.activation	vasmed_l.fiber_length
      0.00000000	     20.00000000	      0.00000000	      0.00000000	      0.25000000	    -10.31599962	      0.00000000	     -0.00000000	      0.07800000	      0.86699999	      0.00000000	     37.58900028	    -11.10699999	     -9.99999287	     44.72769168	     44.72769168	     16.47299276	     -0.00000006	      0.00000000	     37.58900010	    -11.10700000	     -9.99994483	     44.72699207	     44.72699207	     16.47299280	      0.00000000	      0.00000000	      0.00000000	      0.00000000	      0.00000000	     42.99999339	     -0.00001311	     89.90457663	      0.10095319	      0.10093535	      0.00000000	      0.00000000	     42.99999343	     -0.00001092	     89.90490490	      0.10095319	      0.10093535	      0.00000000	      0.00000000	      0.00000000	      0.00000000	      0.00000000	      0.00000000	      0.00000000	      0.00000000	      0.00000000	      0.00000000	      0.00000000	      0.00000000	      0.00000000	      0.00000000	      0.00000000	      0.00000000	      0.00000000	      0.00000000	      0.00000000	      0.00000000	      0.00000000	      0.00000000	      0.00000000	      0.00000000	      0.00000000	      0.00000000	      0.00000000	      0.00000000	      0.00000000	      0.00000000	      0.00000000	      0.00000000	      0.00000000	      0.00000000	      0.00000000	      0.00000000	      0.00000000	      0.00000000	      0.00000000	      0.00000000	      0.00000000	      0.00000000	      0.00000000	      0.00000000	      0.00000000	      0.01000000	      0.01000000	      0.09897238	      0.01000000	      0.01000000	      0.16676520	      0.01000000	      0.01000000	      0.01000000	      0.10418043	      0.01000000	      0.01000000	      0.05899400	      0.01000000	      0.06719524	      0.01000000	      0.04693679	      0.01000000	      0.05459397	      0.01000000	      0.06720194	      0.01000000	      0.05853577	      0.01000000	      0.01000000	      0.01000000	      0.01000000	      0.01000000	      0.01000000	      0.01000000	      0.01000000	      0.01000000	      0.03953248	      0.01000000	      0.01000000	      0.01000000	      0.04995921	      0.01000000	      0.05616599	      0.01000000	      0.02352622	      0.01000000	      0.01000000	      0.06886321	      0.01000000	      0.01000000	      0.07098458	      0.01000000	      0.21834928	      0.01000000	      0.05659771	      0.01000000	      0.07445141	      0.01000000	      0.05401804	      0.01000000	      0.04107506	      0.01000000	      0.11226944	      0.01000000	      0.11046194	      0.01000000	      0.10921467	      0.01000000	      0.01000000	      0.09897237	      0.01000000	      0.01000000	      0.16676519	      0.01000000	      0.01000000	      0.01000000	      0.10418084	      0.01000000	      0.01000000	      0.05899400	      0.01000000	      0.06719524	      0.01000000	      0.04693679	      0.01000000	      0.05459397	      0.01000000	      0.06720220	      0.01000000	      0.05853603	      0.01000000	      0.01000000	      0.01000000	      0.01000000	      0.01000000	      0.01000000	      0.01000000	      0.01000000	      0.01000000	      0.03953247	      0.01000000	      0.01000000	      0.01000000	      0.04995921	      0.01000000	      0.05616599	      0.01000000	      0.02352622	      0.01000000	      0.01000000	      0.06886271	      0.01000000	      0.01000000	      0.07098507	      0.01000000	      0.21834991	      0.01000000	      0.05659771	      0.01000000	      0.07445124	      0.01000000	      0.05401804	      0.01000000	      0.04107506	      0.01000000	      0.11226900	      0.01000000	      0.11046151	      0.01000000	      0.10921428
      0.00100000	     20.00000000	      0.00000000	      0.00000000	      0.25000000	    -10.31071272	     -0.00015611	     -0.00012461	      0.07800015	      0.86700646	      0.00000053	     37.58248560	    -11.10676175	    -10.00096488	     44.72418474	     44.72418474	     16.40789616	     -0.01719550	      0.00000000	     37.58240545	    -11.10770396	    -10.00095512	     44.72355142	     44.72355142	     16.41176232	      0.00000000	      0.00000000	     -0.00643724	      0.00014581	      0.00012394	     43.00117096	     -0.00006974	     89.90453879	      0.10114216	      0.10089261	     -0.00000000	     -0.00000000	     43.00117772	     -0.00009499	     89.90487958	      0.10115594	      0.10089543	     -0.00000000	      0.00000000	     -0.00000000	      0.00000000	     -0.00000000	     -0.00000000	     10.56345543	     -0.30951680	     -0.24687011	      0.00031823	      0.01291718	      0.00105586	    -13.02559795	      0.47234259	     -1.94193561	     -7.01989298	     -7.01989298	   -129.71193630	    -34.20322071	      0.00000000	    -13.18425995	     -1.39822383	     -2.01710194	     -6.88826102	     -6.88826102	   -122.03835407	      0.00000000	      0.00000000	    -12.85995166	      0.28882239	      0.24556853	      2.35112121	     -0.11291672	     -0.07565450	      0.37718523	     -0.08505892	     -0.00000000	     -0.00000000	      2.36461227	     -0.16796907	     -0.05054443	      0.40481479	     -0.07941747	     -0.00000000	      0.00000000	      0.01000000	      0.01000000	      0.09897340	      0.01000000	      0.01000000	      0.16676309	      0.01000000	      0.01000000	      0.01000000	      0.10417970	      0.01000000	      0.01000000	      0.05899751	      0.01000000	      0.06720020	      0.01000000	      0.04693670	      0.01000000	      0.05459337	      0.01000000	      0.06719788	      0.01000000	      0.05853233	      0.01000000	      0.01000000	      0.01000000	      0.01000000	      0.01000000	      0.01000000	      0.01000000	      0.01000000	      0.01000000	      0.03953204	      0.01000000	      0.01000000	      0.01000000	      0.04995696	      0.01000000	      0.05616454	      0.01000000	      0.02352602	      0.01000000	      0.01000000	      0.06886345	      0.01000000	      0.01000000	      0.07098425	      0.01000000	      0.21834775	      0.01000000	      0.05659194	      0.01000000	      0.07445197	      0.01000000	      0.05402595	      0.01000000	      0.04107484	      0.01000000	      0.11226885	      0.01000000	      0.11046140	      0.01000000	      0.10921411	      0.01000000	      0.01000000	      0.09897377	      0.01000000	      0.01000000	      0.16676325	      0.01000000	      0.01000000	      0.01000000	      0.10418014	      0.01000000	      0.01000000	      0.05899769	      0.01000000	      0.06719995	      0.01000000	      0.04693646	      0.01000000	      0.05459314	      0.01000000	      0.06719823	      0.01000000	      0.05853274	      0.01000000	      0.01000000	      0.01000000	      0.01000000	      0.01000000	      0.01000000	      0.01000000	      0.01000000	      0.01000000	      0.03953185	      0.01000000	      0.01000000	      0.01000000	      0.04995838	      0.01000000	      0.05616526	      0.01000000	      0.02352597	      0.01000000	      0.01000000	      0.06886294	      0.01000000	      0.01000000	      0.07098476	      0.01000000	      0.21834849	      0.01000000	      0.05659211	      0.01000000	      0.07445172	      0.01000000	      0.05402497	      0.01000000	      0.04107454	      0.01000000	      0.11226843	      0.01000000	      0.11046098	      0.01000000	      0.10921373
      0.00179675	     20.00000000	      0.00000000	      0.00000000	      0.25000000	    -10.29895168	     -0.00049550	     -0.00039470	      0.07800054	      0.86702081	      0.00000169	     37.56796018	    -11.10624388	    -10.00312656	     44.71634093	     44.71634093	     16.26447746	     -0.05487499	      0.00000000	     37.56770634	    -11.10924080	    -10.00319747	     44.71585259	     44.71585259	     16.27676272	      0.00000000	     -0.00000000	     -0.02074975	      0.00046203	      0.00039267	     43.00378420	     -0.00019505	     89.90445446	      0.10156115	      0.10079914	     -0.00000000	     -0.00000000	     43.00380602	     -0.00028173	     89.90482327	      0.10160575	      0.10080825	     -0.00000000	      0.00000000	      0.00000000	      0.00000000	      0.00000000	     -0.00000000	     18.95887765	     -0.53936127	     -0.42832516	      0.00069129	      0.02308376	      0.00184709	    -23.45119144	      0.82320768	     -3.48419506	    -12.68812813	    -12.68812813	   -229.62315792	    -60.12427859	      0.00000000	    -23.72668498	     -2.44710035	     -3.60977665	    -12.45663257	    -12.45663257	   -216.23710920	      0.00000000	     -0.00000000	    -23.06341007	      0.50189619	      0.42624941	      4.20564392	     -0.20142478	     -0.13607659	      0.67391334	     -0.14869219	     -0.00000000	      0.00000000	      4.22992973	     -0.30052021	     -0.09087405	      0.72364763	     -0.13853688	     -0.00000000	      0.00000000	      0.01000000	      0.01000000	      0.09897732	      0.01000000	      0.01000000	      0.16675519	      0.01000000	      0.01000000	      0.01000000	      0.10417662	      0.01000000	      0.01000000	      0.05901643	      0.01000000	      0.06722941	      0.01000000	      0.04693632	      0.01000000	      0.05459065	      0.01000000	      0.06717918	      0.01000000	      0.05851634	      0.01000000	      0.01000000	      0.01000000	      0.01000000	      0.01000000	      0.01000000	      0.01000000	      0.01000000	      0.01000000	      0.03953038	      0.01000000	      0.01000000	      0.01000000	      0.04994741	      0.01000000	      0.05615810	      0.01000000	      0.02352517	      0.01000000	      0.01000000	      0.06886454	      0.01000000	      0.01000000	      0.07098281	      0.01000000	      0.21834237	      0.01000000	      0.05656559	      0.01000000	      0.07445446	      0.01000000	      0.05407779	      0.01000000	      0.04107385	      0.01000000	      0.11226655	      0.01000000	      0.11045927	      0.01000000	      0.10921192	      0.01000000	      0.01000000	      0.09897907	      0.01000000	      0.01000000	      0.16675599	      0.01000000	      0.01000000	      0.01000000	      0.10417718	      0.01000000	      0.01000000	      0.05901794	      0.01000000	      0.06722711	      0.01000000	      0.04693499	      0.01000000	      0.05458942	      0.01000000	      0.06717999	      0.01000000	      0.05851747	      0.01000000	      0.01000000	      0.01000000	      0.01000000	      0.01000000	      0.01000000	      0.01000000	      0.01000000	      0.01000000	      0.03952948	      0.01000000	      0.01000000	      0.01000000	      0.04995495	      0.01000000	      0.05616204	      0.01000000	      0.02352487	      0.01000000	      0.01000000	      0.06886396	      0.01000000	      0.01000000	      0.07098337	      0.01000000	      0.21834348	      0.01000000	      0.05656662	      0.01000000	      0.07445384	      0.01000000	      0.05406908	      0.01000000	      0.04107224	      0.01000000	      0.11226617	      0.01000000	      0.11045889	      0.01000000	      0.10921158
      0.00259350	     20.00000000	      0.00000000	      0.00000000	      0.25000000	    -10.28050072	     -0.00101045	     -0.00080240	      0.07800130	      0.86704322	      0.00000346	     37.54508683	    -11.10545702	    -10.00651750	     44.70392865	     44.70392865	     16.04317445	     -0.11256387	      0.00000000	     37.54457083	    -11.11158168	    -10.00670488	     44.70366290	     44.70366290	     16.06824602	      0.00000000	     -0.00000000	     -0.04318350	      0.00094040	      0.00079854	     43.00786756	     -0.00039037	     89.90432189	      0.10221498	      0.10065720	     -0.00000000	      0.00000000	     43.00791299	     -0.00057341	     89.90473465	      0.10230794	      0.10067619	     -0.00000000	      0.00000000	     -0.00000000	      0.00000000	      0.00000000	     -0.00000000	     27.35732255	     -0.75006110	     -0.59210313	      0.00123317	      0.03314539	      0.00257849	    -33.98488175	      1.14791962	     -5.02851285	    -18.49684556	    -18.49684556	   -325.13389171	    -84.41124923	      0.00000000	    -34.36548877	     -3.41502758	     -5.19348387	    -18.17040457	    -18.17040457	   -306.50062340	      0.00000000	     -0.00000000	    -33.24625611	      0.69565966	      0.58969318	      6.04103454	     -0.28866131	     -0.19673727	      0.96665222	     -0.20665694	     -0.00000000	      0.00000000	      6.07600294	     -0.43133102	     -0.13164954	      1.03825682	     -0.19203493	     -0.00000000	      0.00000000	      0.01000000	      0.01000000	      0.09898505	      0.01000000	      0.01000000	      0.16673984	      0.01000000	      0.01000000	      0.01000000	      0.10417000	      0.01000000	      0.01000000	      0.05907847	      0.01000000	      0.06732118	      0.01000000	      0.04693544	      0.01000000	      0.05458453	      0.01000000	      0.06713130	      0.01000000	      0.05847458	      0.01000000	      0.01000000	      0.01000000	      0.01000000	      0.01000000	      0.01000000	      0.01000000	      0.01000000	      0.01000000	      0.03952711	      0.01000000	      0.01000000	      0.01000000	      0.04992617	      0.01000000	      0.05614341	      0.01000000	      0.02352326	      0.01000000	      0.01000000	      0.06886703	      0.01000000	      0.01000000	      0.07097959	      0.01000000	      0.21833228	      0.01000000	      0.05650366	      0.01000000	      0.07446009	      0.01000000	      0.05420941	      0.01000000	      0.04107160	      0.01000000	      0.11226191	      0.01000000	      0.11045492	      0.01000000	      0.10920758	      0.01000000	      0.01000000	      0.09898951	      0.01000000	      0.01000000	      0.16674184	      0.01000000	      0.01000000	      0.01000000	      0.10417080	      0.01000000	      0.01000000	      0.05908468	      0.01000000	      0.06731294	      0.01000000	      0.04693162	      0.01000000	      0.05458100	      0.01000000	      0.06713344	      0.01000000	      0.05847792	      0.01000000	      0.01000000	      0.01000000	      0.01000000	      0.01000000	      0.01000000	      0.01000000	      0.01000000	      0.01000000	      0.03952488	      0.01000000	      0.01000000	      0.01000000	      0.04994765	      0.01000000	      0.05615483	      0.01000000	      0.02352241	      0.01000000	      0.01000000	      0.06886630	      0.01000000	      0.01000000	      0.07098028	      0.01000000	      0.21833406	      0.01000000	      0.05650667	      0.01000000	      0.07445864	      0.01000000	      0.05418516	      0.01000000	      0.04106703	      0.01000000	      0.11226161	      0.01000000	      0.11045463	      0.01000000	      0.10920732
